<svg width="30" height="32" viewBox="0 0 30 32" fill="none" xmlns="http://www.w3.org/2000/svg">
<g clip-path="url(#clip0_8_586)">
<path d="M30 16.6031C30 15.5579 29.9157 14.5071 29.7357 13.4789H15.3008V19.3996H23.567C23.224 21.3091 22.1218 22.9983 20.508 24.0717V27.9133H25.4395C28.3355 25.2355 30 21.2808 30 16.6031Z" fill="#4285F4"/>
<path d="M15.3008 31.625C19.4283 31.625 22.9091 30.2635 25.4452 27.9133L20.5136 24.0717C19.1415 25.0095 17.3702 25.5405 15.3065 25.5405C11.314 25.5405 7.92878 22.8344 6.71416 19.1962H1.62512V23.1565C4.22306 28.3483 9.51453 31.625 15.3008 31.625V31.625Z" fill="#34A853"/>
<path d="M6.70853 19.1962C6.06748 17.2867 6.06748 15.219 6.70853 13.3095V9.34918H1.62512C-0.545451 13.6936 -0.545451 18.812 1.62512 23.1565L6.70853 19.1962V19.1962Z" fill="#FBBC04"/>
<path d="M15.3008 6.95946C17.4827 6.92557 19.5914 7.75039 21.1715 9.26444L25.5408 4.87481C22.7741 2.26477 19.1022 0.829803 15.3008 0.874999C9.51453 0.874999 4.22306 4.15168 1.62512 9.34919L6.70853 13.3095C7.91753 9.66556 11.3083 6.95946 15.3008 6.95946V6.95946Z" fill="#EA4335"/>
</g>
<defs>
<clipPath id="clip0_8_586">
<rect width="30" height="30.75" fill="white" transform="translate(0 0.875)"/>
</clipPath>
</defs>
</svg>
